<svg viewBox="0 0 1024.00 1024.00" class="icon" version="1.1" xmlns="http://www.w3.org/2000/svg" fill="#000000"
    stroke="#000000" stroke-width="0.01024">
    <g id="SVGRepo_bgCarrier" stroke-width="0" transform="translate(0,0), scale(1)">
        <path transform="translate(0, 0), scale(32)"
            d="M16,24.944456804543734C19.023944101528198,25.58951112681519,21.199117771106486,29.42395086474212,24.228156986937428,28.803262185284737C27.055176888927342,28.22396983390311,28.545526008366174,24.89057806925293,29.519485561221835,22.17414217933807C30.45158141698048,19.574466835531545,29.879767953494095,16.794359909119397,29.51540839953701,14.056777637669239C29.147193523102608,11.290228752471766,29.1581818426321,8.29012482611948,27.384756765777734,6.135052106650585C25.59692675673677,3.962474460254528,22.681805775751855,3.230246270229757,19.974817177693357,2.4630158610119466C17.29019331489977,1.7021241947802155,14.371103849952586,0.6192432680656119,11.806987356756562,1.71991034840452C9.28765809706457,2.8013521581021963,7.866677597543958,5.534595318765131,6.869653696044729,8.08850989179643C6.055189745728776,10.174790219472367,6.926321060601489,12.437462754217705,6.751302863263099,14.670238104003774C6.591503470999218,16.70886122653394,5.35078172362768,18.645040343728382,5.887500271512737,20.618223883553988C6.4589579363065415,22.719121760703178,7.75410372427006,24.859726838597634,9.755846102118081,25.716093118637264C11.723883429503822,26.558040026332908,13.906529003703875,24.497886871578274,16,24.944456804543734"
            fill="#0071CE" strokewidth="0"></path>
    </g>
    <g id="SVGRepo_tracerCarrier" stroke-linecap="round" stroke-linejoin="round" stroke="#00B3E3" stroke-width="2.048">
    </g>
    <g id="SVGRepo_iconCarrier">
        <path d="M482.7 528.9h58.6v432.2h-58.6z" fill="#333E48"></path>
        <path d="M482.7 713.5h58.6V745h-58.6z" fill=""></path>
        <path d="M363.359 509.434l57.686 10.307-74.213 415.319-57.685-10.308z" fill="#333E48"></path>
        <path d="M326.9 713.5l-5.6 31.5h59.5l5.6-31.5z" fill=""></path>
        <path
            d="M388.4 908.4c0-5.4-4.4-9.8-9.8-9.8H257.3c-5.4 0-9.8 4.4-9.8 9.8v43c0 5.4 4.4 9.8 9.8 9.8h121.3c5.4 0 9.8-4.4 9.8-9.8v-43z"
            fill="#A4A9AD"></path>
        <path d="M660.522 509.462l74.212 415.319-57.686 10.308-74.212-415.319z" fill="#333E48"></path>
        <path
            d="M697 713.5h-59.5l5.6 31.5h59.5zM363.3 509.4L346 606.8h59.5l15.5-87.1zM660.6 509.4l-57.7 10.3 15.5 87.1h59.5zM482.7 528.9h58.6v77.8h-58.6z"
            fill=""></path>
        <path
            d="M635.5 908.4c0-5.4 4.4-9.8 9.8-9.8h121.3c5.4 0 9.8 4.4 9.8 9.8v43c0 5.4-4.4 9.8-9.8 9.8H645.3c-5.4 0-9.8-4.4-9.8-9.8v-43zM728.8 260.1c0-16.1-13.2-29.3-29.3-29.3H324.3c-16.1 0-29.3 13.2-29.3 29.3v281.2c0 16.1 13.2 29.3 29.3 29.3h375.2c16.1 0 29.3-13.2 29.3-29.3V260.1z"
            fill="#A4A9AD"></path>
        <path d="M295.1 363h433.8v123.4H295.1z" fill="#D1D3D3"></path>
        <path d="M511.9 417m-117.8 0a117.8 117.8 0 1 0 235.6 0 117.8 117.8 0 1 0-235.6 0Z" fill="#FFFFFF"></path>
        <path
            d="M511.9 486.3c29.7 0 53.7-24 53.7-53.7 0-29.7-53.7-93.8-53.7-93.8s-53.7 64.1-53.7 93.8c0.1 29.7 24.1 53.7 53.7 53.7z"
            fill="#0071CE"></path>
        <path d="M678.2 424.7m-14.2 0a14.2 14.2 0 1 0 28.4 0 14.2 14.2 0 1 0-28.4 0Z" fill="#A4A9AD"></path>
        <path d="M345.6 424.7m-14.2 0a14.2 14.2 0 1 0 28.4 0 14.2 14.2 0 1 0-28.4 0Z" fill="#A4A9AD"></path>
        <path d="M295.1 230.8h433.8v59.9H295.1z" fill=""></path>
        <path
            d="M716.7 728H307.2c-8 0-14.5-6.5-14.5-14.5s6.5-14.5 14.5-14.5h409.5c8 0 14.5 6.5 14.5 14.5s-6.5 14.5-14.5 14.5z"
            fill="#333E48"></path>
        <path
            d="M803.9 261.8c10.7 0 12.2-4.8 3.2-10.7L528.3 67.5c-9-5.9-23.7-5.9-32.6 0L216.8 251.1c-9 5.9-7.5 10.7 3.2 10.7h583.9z"
            fill="#00B3E3"></path>
        <path d="M595.6 111.9H428.3l-43.9 28.9h255.1l-43.9-28.9z m116.2 76.5H312.1l-43.9 28.9h487.5l-43.9-28.9z"
            fill=""></path>
    </g>
</svg>