<?xml version="1.0" encoding="utf-8"?>
<svg width="800px" height="800px" viewBox="0 0 1024 1024" class="icon"  version="1.1" xmlns="http://www.w3.org/2000/svg">
<path d="M482.7 528.9h58.6v432.2h-58.6z" fill="#333E48" />
<path d="M482.7 713.5h58.6V745h-58.6z" fill="" />
<path d="M363.359 509.434l57.686 10.307-74.213 415.319-57.685-10.308z" fill="#333E48" />
<path d="M326.9 713.5l-5.6 31.5h59.5l5.6-31.5z" fill="" />
<path d="M388.4 908.4c0-5.4-4.4-9.8-9.8-9.8H257.3c-5.4 0-9.8 4.4-9.8 9.8v43c0 5.4 4.4 9.8 9.8 9.8h121.3c5.4 0 9.8-4.4 9.8-9.8v-43z" fill="#A4A9AD" />
<path d="M660.522 509.462l74.212 415.319-57.686 10.308-74.212-415.319z" fill="#333E48" />
<path d="M697 713.5h-59.5l5.6 31.5h59.5zM363.3 509.4L346 606.8h59.5l15.5-87.1zM660.6 509.4l-57.7 10.3 15.5 87.1h59.5zM482.7 528.9h58.6v77.8h-58.6z" fill="" />
<path d="M635.5 908.4c0-5.4 4.4-9.8 9.8-9.8h121.3c5.4 0 9.8 4.4 9.8 9.8v43c0 5.4-4.4 9.8-9.8 9.8H645.3c-5.4 0-9.8-4.4-9.8-9.8v-43zM728.8 260.1c0-16.1-13.2-29.3-29.3-29.3H324.3c-16.1 0-29.3 13.2-29.3 29.3v281.2c0 16.1 13.2 29.3 29.3 29.3h375.2c16.1 0 29.3-13.2 29.3-29.3V260.1z" fill="#A4A9AD" />
<path d="M295.1 363h433.8v123.4H295.1z" fill="#D1D3D3" />
<path d="M511.9 417m-117.8 0a117.8 117.8 0 1 0 235.6 0 117.8 117.8 0 1 0-235.6 0Z" fill="#FFFFFF" />
<path d="M511.9 486.3c29.7 0 53.7-24 53.7-53.7 0-29.7-53.7-93.8-53.7-93.8s-53.7 64.1-53.7 93.8c0.1 29.7 24.1 53.7 53.7 53.7z" fill="#0071CE" />
<path d="M678.2 424.7m-14.2 0a14.2 14.2 0 1 0 28.4 0 14.2 14.2 0 1 0-28.4 0Z" fill="#A4A9AD" />
<path d="M345.6 424.7m-14.2 0a14.2 14.2 0 1 0 28.4 0 14.2 14.2 0 1 0-28.4 0Z" fill="#A4A9AD" />
<path d="M295.1 230.8h433.8v59.9H295.1z" fill="" />
<path d="M716.7 728H307.2c-8 0-14.5-6.5-14.5-14.5s6.5-14.5 14.5-14.5h409.5c8 0 14.5 6.5 14.5 14.5s-6.5 14.5-14.5 14.5z" fill="#333E48" />
<path d="M803.9 261.8c10.7 0 12.2-4.8 3.2-10.7L528.3 67.5c-9-5.9-23.7-5.9-32.6 0L216.8 251.1c-9 5.9-7.5 10.7 3.2 10.7h583.9z" fill="#00B3E3" />
<path d="M595.6 111.9H428.3l-43.9 28.9h255.1l-43.9-28.9z m116.2 76.5H312.1l-43.9 28.9h487.5l-43.9-28.9z" fill="" /></svg>